<svg width="48" height="29" viewBox="0 0 48 29" fill="none" xmlns="http://www.w3.org/2000/svg">
<path d="M24 29.0005C37.2548 29.0005 48 26.75 48 23.9739C48 21.1978 37.2548 18.9473 24 18.9473C10.7452 18.9473 0 21.1978 0 23.9739C0 26.75 10.7452 29.0005 24 29.0005Z" fill="#F5F5F5"/>
<path d="M41.25 10.1628L33.6405 1.90335C33.2753 1.34037 32.742 1 32.1803 1H15.8198C15.258 1 14.7247 1.34037 14.3595 1.90263L6.75 10.1635V16.7979H41.25V10.1628Z" stroke="#D9D9D9"/>
<path d="M31.2097 12.4406C31.2097 11.2881 31.9553 10.3367 32.88 10.3359H41.25V23.3599C41.25 24.8844 40.26 26.1338 39.0375 26.1338H8.9625C7.74 26.1338 6.75 24.8836 6.75 23.3599V10.3359H15.12C16.0447 10.3359 16.7902 11.286 16.7902 12.4385V12.4543C16.7902 13.6068 17.544 14.5375 18.468 14.5375H29.532C30.456 14.5375 31.2097 13.5982 31.2097 12.4457V12.4406V12.4406Z" fill="#FAFAFA" stroke="#D9D9D9"/>
</svg>
