<svg width="32" height="32" viewBox="0 0 32 32" fill="none" xmlns="http://www.w3.org/2000/svg">
<g clip-path="url(#clip0_4963_98403)">
<path d="M31.6496 26.7445L28.8467 23.9416C32.7007 17.8686 31.8832 9.81022 26.6277 4.55474C23.708 1.63504 19.854 0 15.6496 0C11.4453 0 7.59124 1.63504 4.55474 4.55474C3.73723 5.37226 3.0365 6.30657 2.45255 7.35767L14.365 19.2701L19.1533 24.0584C18.1022 24.5255 16.9343 24.7591 15.6496 24.7591C13.1971 24.7591 10.9781 23.8248 9.22628 22.073C7.59124 20.438 6.65693 18.3358 6.54015 16L0.934307 10.3942C0.350365 12.0292 0 13.8978 0 15.6496C0 19.854 1.63504 23.708 4.55474 26.7445C7.47445 29.781 11.4453 31.2993 15.6496 31.2993C18.6861 31.2993 21.4891 30.4818 23.9416 28.8467L26.7445 31.6496C26.9781 31.8832 27.2117 32 27.562 32C27.9124 32 28.146 31.8832 28.3796 31.6496L31.6496 28.3796C32.1168 27.9124 32.1168 27.2117 31.6496 26.7445ZM24.0584 19.1533L12.146 7.24088C13.1971 6.77372 14.365 6.54015 15.6496 6.54015C18.1022 6.54015 20.3212 7.47445 22.073 9.22628C23.8248 10.9781 24.7591 13.1971 24.7591 15.6496C24.7591 16.8175 24.5255 17.9854 24.0584 19.1533Z" fill="#454367"/>
<path d="M7.35775 2.45233C6.30665 3.03627 5.37234 3.737 4.55483 4.55452C3.73731 5.37204 3.03658 6.30635 2.45264 7.35744L26.7446 31.6494C26.9782 31.883 27.2118 31.9998 27.5621 31.9998C27.9125 31.9998 28.1461 31.883 28.3796 31.6494L31.6497 28.3793C32.1169 27.9122 32.1169 27.2115 31.6497 26.7443L7.35775 2.45233Z" fill="#82648F"/>
</g>
<defs>
<clipPath id="clip0_4963_98403">
<rect width="32" height="32" fill="white"/>
</clipPath>
</defs>
</svg>
