<svg width="459" height="226" viewBox="0 0 459 226" fill="none" xmlns="http://www.w3.org/2000/svg">
<path d="M46.0516 168.886C44.9066 164.484 43.5861 159.815 40.1695 156.825C37.9164 154.851 34.9985 153.854 32.256 152.673C28.8103 151.195 25.5193 149.381 22.431 147.256C20.2056 145.724 17.9617 143.86 17.2137 141.267C16.712 139.431 17.2096 137.467 18.525 136.091C19.2241 135.462 19.3394 134.41 18.7928 133.645C18.0937 132.749 17.7634 131.621 17.8694 130.489C17.9412 129.9 18.1396 129.334 18.4511 128.828C18.7229 128.362 18.7771 127.801 18.5995 127.292C18.422 126.782 18.0304 126.376 17.5277 126.18C17.15 126.063 16.785 125.908 16.4381 125.719C13.908 124.344 12.8183 121.234 12.7445 118.336C12.6706 115.439 13.3632 112.624 13.4001 109.745C13.4924 104.31 11.2209 99.0597 8.02588 94.6581C5.944 91.8809 3.60685 89.3044 1.04495 86.9621C0.467357 86.3883 0.334083 85.5041 0.716909 84.7858C1.09973 84.0674 1.90827 83.6844 2.70708 83.8431C14.8498 86.6115 25.3859 95.6639 31.3972 106.746C32.8931 109.515 34.2875 112.541 36.9376 114.184C38.2581 114.987 39.8186 115.393 41.0191 116.352C42.7282 117.9 43.6162 120.156 43.4199 122.452C43.332 123.867 43.0524 125.264 42.5889 126.605C42.4276 127.057 42.4551 127.555 42.6652 127.988C42.8753 128.42 43.2504 128.749 43.7062 128.902C45.206 129.399 46.3348 130.646 46.6795 132.187C46.9004 133.425 46.7888 134.698 46.3563 135.878C46.2081 136.354 46.2589 136.87 46.4972 137.308C46.7355 137.746 47.141 138.069 47.6214 138.204C49.2444 138.692 50.5075 139.971 50.9734 141.6C51.6197 144.091 50.7056 146.684 50.05 149.185C48.3282 156.246 48.9371 163.675 51.786 170.362" fill="#E6FCF7"/>
<path d="M57.1229 169.984C59.7361 165.638 56.892 160.111 57.1229 155.044C57.4184 149.277 61.7399 144.562 63.5867 139.09C65.7143 132.612 64.3649 125.497 60.0131 120.247C57.9817 117.866 55.3961 116.002 53.3185 113.667C51.2408 111.333 49.6249 108.232 50.1974 105.159C50.6868 102.465 52.7183 100.324 54.8144 98.5799C53.2538 96.6513 51.6286 94.4736 51.7487 91.9913C51.8687 89.509 54.7774 87.2021 56.8274 88.6047C55.0545 87.239 54.8236 84.563 55.5716 82.459C56.3195 80.3551 57.8154 78.6295 59.0897 76.784C65.452 67.7592 66.3754 55.5602 62.6725 45.1513C62.3521 44.2042 62.6361 43.1576 63.3913 42.502C64.1466 41.8465 65.2233 41.7119 66.1168 42.1615C69.2248 43.7469 71.8471 46.1411 73.7072 49.0915C76.6067 53.567 77.9549 58.836 79.0906 64.0405C80.3926 69.9647 81.5192 76.0365 84.6311 81.3056C85.2642 82.3664 85.6021 83.577 85.6099 84.8121C85.6099 89.0107 82.0917 89.426 79.5246 90.8286C76.6018 92.5074 74.8493 95.6654 74.9723 99.0321C74.9775 99.6729 75.2287 100.287 75.6741 100.748C76.7267 101.736 78.1395 101.136 79.5431 100.675C80.752 100.263 82.0724 100.325 83.2367 100.85C87.2351 102.76 85.8038 107.605 82.7473 108.583C84.9328 109.293 86.3253 111.432 86.0893 113.716C85.8534 116.001 84.0531 117.81 81.7685 118.06C85.5729 118.429 88.1215 123.319 86.2286 126.651C84.3356 129.982 79.183 130.988 77.6409 134.633C76.7175 136.792 77.3546 139.32 76.6252 141.544C76.0368 143.045 75.1111 144.39 73.9196 145.475C69.4319 150.089 63.6698 154.196 62.414 160.47C61.6199 164.457 62.8203 168.775 61.3151 172.531" fill="#05CC9A"/>
<path d="M71.4543 168.425C70.0692 164.549 72.5162 160.378 75.2956 157.351C78.0751 154.325 81.427 151.427 82.3874 147.422C82.9691 145.014 82.5998 142.393 83.5416 140.105C84.4835 137.816 87.7616 136.201 89.4145 138.056C89.553 135.934 90.4302 133.119 92.5541 133.304C93.0848 133.439 93.625 133.535 94.17 133.59C95.2227 133.525 95.8968 132.4 96.0168 131.357C96.0445 130.97 96.0445 130.581 96.0168 130.194C95.9278 128.779 96.3688 127.381 97.2542 126.272C100.283 122.581 102.693 126.697 105.5 124.694C106.819 123.682 107.432 121.998 107.07 120.376C106.534 117.543 104.3 115.66 102.398 113.593C98.4849 109.219 96.2019 103.629 95.9337 97.7678C95.5274 88.0141 100.652 79.22 105.002 70.306C105.225 69.8384 105.728 69.5714 106.242 69.6477C106.755 69.7239 107.158 70.1257 107.236 70.6382C107.736 74.3749 109.472 77.8372 112.167 80.475C114.014 82.2375 116.202 83.5663 117.92 85.4303C120.574 88.3369 121.829 92.2557 121.355 96.1622C121.143 97.8139 120.616 99.4565 120.819 101.099C121.226 104.384 124.301 106.636 125.677 109.662C127.342 113.563 126.081 118.097 122.639 120.579C124.161 122.791 124.202 125.701 122.745 127.957C121.287 130.213 118.616 131.371 115.972 130.895C118.416 133.932 118.042 138.352 115.122 140.935C117.052 143.261 115.27 147.145 112.444 148.225C109.619 149.305 106.414 148.336 103.718 146.952C106.562 147.754 107.098 152.073 105.048 154.195C102.998 156.318 99.5534 156.456 96.7371 155.46C97.8082 155.82 97.6605 157.554 96.6817 158.173C95.7029 158.791 94.5117 158.662 93.3851 158.634C86.2222 158.603 79.8542 163.185 77.6134 169.984" fill="#E6FCF7"/>
<path d="M46.4947 168.757C45.6636 165.601 44.7956 162.362 43.0504 159.529C41.3311 156.912 38.8539 154.88 35.9494 153.706C32.3184 152.208 28.7815 150.492 25.358 148.567C22.1722 146.629 17.2136 143.777 17.5275 139.431C17.6476 137.77 18.8665 136.93 19.3743 135.5C19.8083 134.356 19.2358 133.811 18.7833 132.815C18.1093 131.32 18.3493 130.416 18.848 128.967C19.0282 128.585 19.1287 128.171 19.1435 127.749C19.087 126.971 18.6381 126.275 17.9523 125.903C16.2348 124.778 14.9882 124.408 14.0555 122.406C13.2956 120.581 12.9944 118.598 13.1783 116.629C13.3814 112.818 14.1571 109.247 13.3999 105.418C11.8948 97.814 6.88068 92.7019 1.89431 87.2021C0.693882 85.8733 0.296819 84.1754 3.53796 84.5445C4.33139 84.6944 5.10783 84.9232 5.85571 85.2274C7.68185 85.8309 9.45983 86.5712 11.1745 87.4421C14.3668 89.0638 17.3472 91.0721 20.0484 93.4216C25.5057 98.1555 28.9592 103.831 32.5698 109.976C34.0646 112.566 36.3582 114.602 39.1074 115.78C41.2497 116.755 42.6929 118.815 42.8749 121.16C42.9796 122.398 42.8798 123.645 42.5794 124.851C42.299 125.605 42.1068 126.388 42.0069 127.186C42.0069 128.33 42.6441 128.792 43.5029 129.336C45.0449 130.314 46.0884 131.089 46.2731 133.027C46.3839 134.227 45.756 135.297 45.8021 136.451C45.8155 137.326 46.3182 138.121 47.1041 138.508C48.2861 139.191 49.3203 139.431 50.0867 140.723C50.9455 142.199 50.7793 144.128 50.4653 145.724C49.6712 149.877 48.5631 153.67 48.6647 157.951C48.7733 162.273 49.6909 166.536 51.3702 170.519C51.5919 171.064 52.4876 170.824 52.2936 170.28C50.5418 166.122 49.6316 161.659 49.6158 157.148C49.6126 154.919 49.8416 152.696 50.2991 150.514C50.7331 148.401 51.518 146.324 51.6565 144.156C51.818 142.705 51.4932 141.241 50.7331 139.994C49.8651 138.711 48.4985 138.213 47.5751 137.013C46.6517 135.814 46.864 136.146 47.1041 134.946C47.1652 134.66 47.2084 134.371 47.2334 134.079C47.3119 133.418 47.2838 132.748 47.1503 132.095C46.766 130.807 45.947 129.692 44.8325 128.939C44.0107 128.229 45.1003 129.65 43.7429 127.749C42.7364 126.319 43.1797 127.103 43.2997 125.903C43.392 124.981 43.7337 124.168 43.8353 123.292C44.0633 121.582 43.8073 119.843 43.0966 118.272C41.5175 114.941 37.6023 114.719 35.2753 112.136C32.7175 109.312 31.3601 105.445 29.227 102.308C27.22 99.3553 24.9012 96.6267 22.3107 94.1691C17.2992 89.3235 11.1825 85.77 4.48907 83.8156C2.79924 83.3449 0.241414 82.8928 0.0105637 85.412C-0.0910106 86.5101 0.555372 87.0914 1.28486 87.8296C2.79001 89.3614 4.32286 90.8286 5.70796 92.4435C8.79914 95.9038 11.0547 100.027 12.3011 104.495C13.5015 109.229 12.1071 113.575 12.3011 118.337C12.3934 121.105 13.2891 124.058 15.6068 125.719C15.9762 125.977 16.4656 126.125 16.8165 126.392C19.6421 128.57 17.6845 128.404 17.5922 129.779C17.4854 131.084 17.7109 132.395 18.2478 133.59C18.9403 135.5 16.9642 137.05 16.678 138.961C16.4881 140.254 16.7213 141.575 17.3428 142.725C19.1065 146.158 23.0956 148.373 26.3091 150.209C30.3074 152.479 35.0168 153.688 38.7935 156.309C42.995 159.215 44.4078 164.309 45.6451 168.997C45.6897 169.162 45.8188 169.29 45.984 169.334C46.1491 169.378 46.3251 169.331 46.4457 169.21C46.5662 169.089 46.6131 168.913 46.5685 168.748L46.4947 168.757Z" fill="#293044"/>
<path d="M57.52 170.224C60.6318 164.411 56.3565 157.813 58.2402 151.686C60.124 145.558 64.7041 140.612 65.0272 133.83C65.2343 127.828 62.8215 122.033 58.4157 117.949C55.6455 115.319 52.4136 112.911 51.0285 109.229C49.4587 104.947 51.9519 101.561 55.1007 98.9029C55.2778 98.7204 55.2778 98.4303 55.1007 98.2477C53.7873 96.8463 52.8169 95.1596 52.2658 93.3201C51.7949 91.0593 53.7894 87.5251 56.5412 89.0016C56.9936 89.2415 57.5107 88.6509 57.1044 88.2818C52.6998 84.2677 58.5634 78.7034 60.6688 75.1784C62.8027 71.5731 64.2228 67.5913 64.8518 63.4499C65.4557 59.4715 65.4246 55.4225 64.7595 51.4539C64.5748 50.3558 64.3439 49.2761 64.0669 48.1965C63.8453 47.3383 63.0696 45.908 63.0973 45.0221L63.7807 43.721C64.0946 42.1338 64.9995 41.8755 66.5509 42.8905C66.99 43.107 67.4101 43.3602 67.8067 43.6472C69.0104 44.4588 70.1166 45.4062 71.1032 46.4709C78.0565 53.9177 78.2134 64.9264 81.076 74.1541C81.6999 76.2096 82.4936 78.2097 83.4491 80.1337C84.6588 82.5144 86.2748 85.6703 83.9293 87.9311C82.7843 89.0569 81.0945 89.4722 79.7001 90.1919C78.3045 90.9012 77.1032 91.9402 76.2004 93.2186C74.88 95.0642 72.95 100.269 76.0804 101.524C78.7952 102.631 81.0852 99.4843 83.9016 101.81C86.1639 103.655 85.1944 107.097 82.6088 108.103C82.3889 108.147 82.2307 108.34 82.2307 108.564C82.2307 108.789 82.3889 108.982 82.6088 109.026C84.5296 109.739 85.7152 111.67 85.481 113.704C85.2468 115.738 83.6533 117.349 81.6208 117.608C81.3658 117.608 81.1591 117.814 81.1591 118.069C81.1591 118.324 81.3658 118.53 81.6208 118.53C84.6992 119.062 86.785 121.959 86.3117 125.045C85.7669 127.813 82.9413 129.207 80.7713 130.674C79.2309 131.571 77.9833 132.895 77.1792 134.485C75.868 137.567 77.0592 140.806 74.8707 143.713C71.6296 147.948 66.9202 150.837 64.0115 155.395C62.7019 157.43 61.9036 159.75 61.6845 162.159C61.3706 165.647 62.0077 169.098 60.8258 172.485C60.6226 173.048 61.5183 173.288 61.7492 172.734C62.9588 169.264 62.3032 165.73 62.6726 162.159C63.0419 158.588 64.8795 155.423 67.2896 152.738C70.8078 148.843 76.9114 145.355 77.447 139.708C77.6317 137.752 77.447 135.685 78.5828 133.968C79.6025 132.709 80.8568 131.659 82.2764 130.877C84.0401 129.724 85.97 128.487 86.8934 126.466C88.5094 122.775 85.7946 118.29 81.9163 117.691V118.613C84.4252 118.299 86.3752 116.278 86.5997 113.762C86.8242 111.245 85.2626 108.912 82.8489 108.158V109.081C85.2682 108.158 86.8657 105.39 85.8038 102.862C85.0764 101.306 83.5951 100.238 81.8886 100.038C81.0498 99.9547 80.2029 100.036 79.3954 100.278C78.195 100.582 76.3297 101.754 75.4802 99.5858C75.2557 98.5919 75.3198 97.5547 75.6649 96.596C76.4369 93.8708 78.4385 91.6624 81.076 90.6256C82.4703 89.9889 83.9847 89.426 84.982 88.1987C88.1031 84.3323 83.7262 79.1186 82.4611 75.4645C78.8968 65.2401 79.1923 52.6904 70.6969 44.8191C68.8501 43.1212 63.9284 39.2271 62.2847 43.3335C61.546 45.179 63.0604 47.7905 63.4667 49.5806C64.1158 52.4224 64.4257 55.3309 64.3901 58.2455C64.381 64.7954 62.3989 71.1909 58.7019 76.5995C56.3011 80.0414 52.312 85.172 56.4765 88.9739L57.0398 88.2449C55.3243 87.3775 53.2303 87.9475 52.1919 89.5644C50.7884 91.4561 51.1947 93.7907 52.2381 95.7655C52.9584 97.1312 54.5097 97.9248 53.4293 99.1982C52.429 100.195 51.5232 101.282 50.7237 102.446C49.3778 104.825 49.2711 107.708 50.4375 110.179C51.6933 113.077 54.0388 115.208 56.3288 117.303C59.2467 119.979 61.7122 122.84 63.0419 126.595C64.2896 130.157 64.4694 134.006 63.559 137.669C62.6356 141.175 60.6688 144.239 59.0621 147.441C57.3768 150.449 56.5736 153.871 56.7443 157.315C57.086 161.485 58.8404 165.878 56.7443 169.827C56.4581 170.353 57.2614 170.815 57.5384 170.298L57.52 170.224Z" fill="#293044"/>
<path d="M71.8974 168.305C69.8475 161.439 77.1054 156.89 80.5959 152.101C82.0839 150.083 82.9764 147.688 83.1722 145.189C83.1767 143.552 83.4417 141.926 83.9571 140.372C84.742 138.591 87.189 136.617 89.0819 138.361C89.2161 138.488 89.412 138.524 89.583 138.455C89.7541 138.385 89.8686 138.222 89.8761 138.038C89.9777 136.912 90.2085 135.085 91.1504 134.291C92.4247 133.221 93.5605 134.365 94.7886 133.904C95.7688 133.412 96.4102 132.433 96.4692 131.338C96.6446 130.037 96.4138 128.893 96.9863 127.647C97.5828 125.944 99.325 124.921 101.105 125.23C102.517 125.46 103.727 126.042 105.14 125.424C108.298 124.039 107.956 120.025 106.442 117.58C105.34 116.035 104.104 114.59 102.748 113.261C100.778 111.053 99.2151 108.513 98.1313 105.759C93.8375 94.7966 98.713 84.0463 103.598 74.2372C103.967 73.4898 104.798 70.823 105.445 70.5461L106.137 70.6569C106.811 70.5461 107.061 70.823 106.95 71.515C107.091 71.9937 107.202 72.4806 107.282 72.973C107.877 75.2044 108.913 77.2941 110.329 79.1187C113.571 83.2896 118.64 85.1998 120.385 90.5888C121.373 93.7078 120.644 96.3746 120.385 99.512C120.267 101.678 120.954 103.811 122.315 105.501C123.793 107.596 125.547 109.478 125.898 112.126C126.298 115.257 124.973 118.359 122.435 120.238C122.216 120.369 122.142 120.652 122.269 120.874C123.633 122.955 123.637 125.645 122.278 127.729C120.919 129.813 118.455 130.896 115.999 130.49C115.556 130.434 115.464 131.006 115.676 131.274C117.906 134.139 117.535 138.24 114.826 140.659C114.676 140.807 114.645 141.039 114.753 141.221C116.322 143.455 115.011 146.435 112.758 147.681C109.988 149.157 106.544 147.902 103.986 146.647L103.626 147.496C106.516 148.567 106.396 152.553 104.318 154.316C102.24 156.078 99.3317 155.884 96.9309 155.109C96.7113 155.058 96.4869 155.173 96.4 155.381C96.3132 155.589 96.3892 155.829 96.58 155.949C96.3214 157.61 95.6566 158.394 94.4839 158.293H93.8005C93.2465 158.293 92.7017 158.293 92.1569 158.293C91.2487 158.351 90.3469 158.484 89.4605 158.69C83.7042 160.079 79.0699 164.333 77.1978 169.947C77.0131 170.51 77.8995 170.75 78.1212 170.187C80.1511 164.158 85.5271 159.876 91.8614 159.243C93.5974 159.096 96.1922 159.778 97.4941 158.228C97.9035 157.789 98.0934 157.19 98.011 156.595C97.9286 156.001 97.5827 155.476 97.0694 155.165L96.7185 156.004C99.9227 157.047 104.512 156.927 106.248 153.467C107.513 150.938 106.645 147.625 103.912 146.61C103.422 146.426 103.081 147.229 103.552 147.45C106.322 148.816 109.702 149.979 112.74 148.724C114.85 147.828 116.278 145.824 116.433 143.538C116.427 142.965 116.337 142.396 116.165 141.849C115.907 140.797 115.907 141.48 116.332 140.539C116.884 139.652 117.372 138.727 117.791 137.77C118.491 135.317 117.953 132.677 116.35 130.693L116.018 131.477C118.808 131.883 121.578 130.62 123.1 128.248C124.623 125.876 124.615 122.833 123.082 120.468L122.915 121.096C126.154 118.757 127.622 114.67 126.609 110.807C126.018 108.731 124.596 107.116 123.349 105.372C122.48 104.301 121.834 103.068 121.447 101.745C121.041 99.8996 121.66 98.054 121.881 96.2823C122.491 91.1978 120.219 86.6024 116.341 83.4096C114.115 81.564 111.853 79.9215 110.256 77.4577C109.329 76.0183 108.634 74.4428 108.196 72.7885C107.966 71.9211 108.039 70.6753 107.485 69.9463C107.206 69.5662 106.781 69.3208 106.312 69.2699C105.843 69.219 105.374 69.3673 105.02 69.6787C104.327 70.2508 103.967 71.5889 103.57 72.3732C102.841 73.8589 102.093 75.3353 101.363 76.8302C98.87 81.9701 96.5246 87.3222 95.7766 93.0434C95.0756 98.2099 95.9172 103.468 98.1959 108.158C99.3453 110.431 100.813 112.528 102.554 114.387C104.604 116.611 107.975 119.702 106.248 123.052C104.521 126.402 101.631 123.587 99.147 124.288C97.3002 124.814 95.989 126.798 95.6381 128.626C95.5689 129.13 95.5319 129.639 95.5273 130.148C95.5628 130.67 95.5287 131.195 95.4257 131.708C94.6408 132.87 93.7174 133.239 92.6555 132.815C92.057 132.805 91.466 132.948 90.938 133.23C89.4421 134.218 89.0912 136.377 88.9342 138.01L89.7191 137.678C88.0016 136.1 85.5823 136.755 84.0863 138.379C81.4454 141.203 82.8028 145.835 81.2607 149.166C78.2504 155.626 68.4808 160.148 70.9832 168.545C71.0521 168.8 71.3146 168.95 71.5696 168.882C71.8246 168.813 71.9755 168.55 71.9067 168.296L71.8974 168.305Z" fill="#293044"/>
<path d="M86.4687 173.398C87.2908 170.817 88.4095 168.34 89.8022 166.016C90.3066 164.971 91.1678 164.14 92.2308 163.672C93.6236 163.313 95.0481 164.133 95.435 165.518C95.3592 163.725 96.584 162.138 98.3379 161.756C100.092 161.373 101.867 162.307 102.545 163.968C103.272 162.668 104.518 161.739 105.971 161.411C107.508 161.291 108.994 161.993 109.877 163.257C110.738 164.501 111.283 165.936 111.465 167.437C111.853 169.65 111.909 171.908 111.631 174.137C111.354 173.597 110.83 173.228 110.228 173.149" fill="#8998D6"/>
<path d="M86.9212 173.519C87.4854 171.749 88.1894 170.027 89.0265 168.369C89.7283 166.985 93.0526 160.766 94.9917 165.601C95.1764 166.053 95.9151 166.035 95.9151 165.481C95.8146 163.884 96.9022 162.456 98.469 162.127C100.036 161.798 101.606 162.669 102.157 164.171C102.243 164.311 102.395 164.396 102.559 164.396C102.723 164.396 102.875 164.311 102.961 164.171C104.069 162.602 105.676 161.402 107.67 162.095C109.351 162.713 110.237 164.402 110.717 166.026C111.39 168.656 111.55 171.391 111.188 174.081L112.056 173.851C111.673 173.246 111.071 172.813 110.376 172.642C110.121 172.573 109.858 172.724 109.789 172.979C109.72 173.234 109.871 173.496 110.126 173.565L111.253 174.34C111.359 174.518 111.57 174.604 111.77 174.55C111.97 174.496 112.11 174.316 112.112 174.109C112.499 170.353 112.61 164.623 109.341 161.984C106.7 159.861 103.921 161.301 102.194 163.728H102.998C102.224 161.872 100.229 160.839 98.2656 161.278C96.3025 161.717 94.9377 163.501 95.0287 165.509L95.9521 165.38C95.6373 164.373 94.8317 163.595 93.8139 163.315C92.796 163.035 91.7056 163.291 90.9195 163.995C88.4171 166.109 87.0874 170.307 86.0994 173.316C85.9147 173.888 86.8104 174.128 87.0228 173.565L86.9212 173.519Z" fill="#293044"/>
<rect x="20.547" y="167.982" width="108.287" height="56.9998" rx="4.5" fill="white"/>
<path d="M20.547 215.726V220.829C20.547 223.123 22.4074 224.982 24.7023 224.982H124.651C125.754 224.984 126.813 224.547 127.592 223.768C128.372 222.989 128.809 221.931 128.807 220.829V215.726L20.547 215.726Z" fill="#445072"/>
<path d="M128.835 220.829C128.837 221.931 128.4 222.989 127.62 223.768C126.84 224.548 125.782 224.984 124.679 224.982H24.7023C22.4074 224.982 20.547 223.123 20.547 220.829V172.135C20.547 169.841 22.4074 167.982 24.7023 167.982H124.651C125.754 167.98 126.813 168.416 127.592 169.196C128.372 169.975 128.809 171.032 128.807 172.135" stroke="#293044" stroke-width="0.5"/>
<path d="M123.497 225C98.8424 225 81.9165 202.531 93.7083 177.016L93.7704 176.881C105.558 151.374 122.155 115.46 210 93C298 70.5 288.144 1.30105 352.963 1.30105C378.006 -1.45805 401.377 15.115 413.612 35.9605C434.841 72.124 434.056 123.255 414.665 159.944C393.341 199.812 351.862 224.789 306.627 225H123.497Z" fill="#E4E7F6" stroke="#293044" stroke-width="0.5"/>
<path d="M359.122 167.769C356.98 165.85 354.773 163.857 353.628 161.218C352.483 158.578 352.704 155.118 354.911 153.291C357.118 151.464 361.32 152.571 361.634 155.423C361.781 153.817 362.123 152.073 363.342 151.021C364.561 149.969 366.906 150.163 367.368 151.713C364.524 147.533 361.56 142.974 361.717 137.871C361.874 132.768 366.842 127.721 371.606 129.41C373.008 130.002 374.267 130.886 375.3 132.003C379.808 136.454 383.25 141.867 385.365 147.837C384.763 146.626 384.724 145.211 385.257 143.968C385.79 142.725 386.842 141.778 388.135 141.378C389.473 141.159 390.838 141.55 391.857 142.443C392.876 143.336 393.441 144.638 393.399 145.992C393.085 140.889 392.854 135.417 395.55 131.08C398.247 126.743 405.098 124.685 408.478 128.487C409.698 130.049 410.454 131.923 410.657 133.894C411.284 137.75 411.193 141.689 410.389 145.512C410.895 143.134 412.056 140.944 413.741 139.191C415.514 137.548 418.275 136.782 420.418 137.908C424.259 139.929 423.437 145.577 422.061 149.692C422.908 148.387 424.244 147.477 425.769 147.168C427.295 146.859 428.88 147.177 430.169 148.05C432.634 149.95 432.68 154.278 430.169 156.087C430.03 154.085 432.939 152.903 434.536 154.131C436.134 155.358 436.162 157.914 435.026 159.566C436.328 157.72 436.956 155.45 438.193 153.549C439.43 151.648 441.674 150.052 443.863 150.679C445.876 151.27 446.975 153.595 446.855 155.699C446.735 157.803 445.7 159.713 444.685 161.559C444.601 159.713 447.15 158.542 448.784 159.455C450.419 160.369 450.945 162.565 450.502 164.383C449.926 166.165 448.939 167.786 447.621 169.117" fill="#05CC9A"/>
<path d="M359.454 167.446C356.684 164.927 353.36 161.974 353.415 157.877C353.415 155.709 354.496 153.411 356.795 152.95C357.724 152.699 358.715 152.833 359.542 153.323C360.37 153.814 360.965 154.617 361.19 155.552C361.301 156.096 362.049 155.902 362.114 155.423C362.262 154.085 362.437 152.654 363.453 151.732C364.469 150.809 366.223 150.292 366.989 151.962L367.784 151.492C365.318 147.856 362.64 143.925 362.243 139.431C361.883 135.463 364.136 130.923 368.218 129.797C372.548 128.607 376.131 133.322 378.495 136.312C381.246 139.829 383.427 143.755 384.959 147.948L385.799 147.588C384.87 145.627 385.586 143.281 387.452 142.172C390.102 140.723 393.039 143.297 392.992 146.001H393.916C393.5 139.163 393.408 129.391 401.663 127.25C411.756 124.62 411.239 139.246 410.038 145.401C409.972 145.656 410.125 145.916 410.38 145.983C410.635 146.049 410.896 145.896 410.962 145.641C411.599 143.427 412.43 141.11 414.194 139.523C416.188 137.733 419.494 137.059 421.498 139.209C423.982 141.876 422.726 146.592 421.738 149.572C421.572 150.098 422.301 150.338 422.588 149.932C424.259 147.514 428.128 146.49 430.381 148.742C431.293 149.712 431.765 151.015 431.685 152.344C431.604 153.674 430.979 154.911 429.956 155.764L430.741 156.096C430.87 153.734 433.973 153.586 435.017 155.247C435.691 156.559 435.585 158.136 434.74 159.344C434.655 159.488 434.654 159.665 434.736 159.81C434.819 159.954 434.972 160.044 435.138 160.045C435.304 160.046 435.459 159.958 435.543 159.815C437.39 156.982 438.313 151.971 442.136 151.113C444.685 150.541 446.384 152.848 446.513 155.127C446.642 157.407 445.423 159.455 444.398 161.338L445.257 161.568C445.377 160.825 445.846 160.184 446.519 159.846C447.192 159.508 447.987 159.514 448.655 159.861C450.059 160.562 450.391 162.334 450.234 163.7C450.013 165.702 448.664 167.326 447.409 168.803C447.021 169.255 447.676 169.91 448.055 169.458C450.216 166.92 452.931 162.731 449.902 159.704C449.03 158.8 447.716 158.475 446.523 158.869C445.33 159.262 444.468 160.305 444.306 161.55C444.308 161.757 444.448 161.937 444.648 161.991C444.848 162.044 445.059 161.959 445.165 161.781C446.919 158.569 449.311 152.553 444.592 150.43C439.126 147.976 436.743 156.198 434.712 159.326L435.515 159.797C436.679 157.794 436.808 154.528 434.315 153.42C433.363 153 432.268 153.063 431.371 153.59C430.474 154.117 429.886 155.043 429.79 156.078C429.8 156.258 429.914 156.417 430.081 156.486C430.248 156.555 430.44 156.522 430.575 156.401C431.846 155.314 432.577 153.726 432.577 152.055C432.577 150.383 431.846 148.795 430.575 147.708C427.805 145.475 423.649 146.693 421.738 149.452L422.588 149.803C423.797 146.056 425.118 139.791 420.741 137.502C415.265 134.642 411.276 141.027 410.038 145.383L410.962 145.623C412.218 139.256 412.809 124.75 402.651 126.106C392.983 127.398 392.54 138.388 393.002 145.983C393.002 146.237 393.208 146.444 393.463 146.444C393.718 146.444 393.925 146.237 393.925 145.983C393.925 142.808 390.776 139.902 387.563 141.083C386.274 141.637 385.269 142.695 384.784 144.011C384.299 145.326 384.375 146.783 384.996 148.04C385.217 148.502 386.021 148.17 385.836 147.681C384.088 142.864 381.503 138.394 378.2 134.476C375.531 131.338 371.967 127.389 367.414 129.077C363.839 130.595 361.454 134.03 361.283 137.908C361.043 143.113 364.21 147.828 366.999 151.944C367.131 152.158 367.41 152.227 367.627 152.098C367.844 151.97 367.917 151.692 367.793 151.473C367.108 150.086 365.454 149.481 364.035 150.098C361.901 150.901 361.421 153.42 361.2 155.413L362.123 155.293C361.329 151.187 355.659 150.993 353.572 154.177C350.165 159.427 355.17 164.789 358.845 168.083C359.288 168.48 359.944 167.834 359.501 167.437L359.454 167.446Z" fill="#293044"/>
<rect x="349.712" y="167.982" width="108.287" height="56.9998" rx="4.5" fill="white"/>
<path d="M349.713 215.726V220.829C349.71 221.931 350.147 222.989 350.927 223.768C351.707 224.547 352.765 224.984 353.868 224.982H453.845C456.14 224.982 458 223.123 458 220.829V215.726L349.713 215.726Z" fill="#445072"/>
<rect x="349.712" y="167.982" width="108.287" height="56.9998" rx="4.5" stroke="#293044" stroke-width="0.5"/>
</svg>
